<svg width="249" height="156" viewBox="0 0 249 156" fill="none" xmlns="http://www.w3.org/2000/svg">
<path d="M213.484 153.844C214.404 153.747 215.338 153.135 216.313 154.19C216.172 154.719 216.172 155.32 215.934 155.645C214.139 157.72 212.42 159.874 210.67 162.03C208.473 164.252 206.128 166.232 203.656 167.955L201.799 172.052L194.877 177.752C194.658 177.84 194.42 177.865 194.18 177.826L192.769 177.674C192.244 176.614 191.751 175.551 191.219 174.449C189.757 176.188 187.349 176.656 186.905 179.918L189.621 180.963C189.505 181.446 189.511 182.089 189.266 182.372C188.07 183.569 186.944 184.876 185.896 186.285C185.092 187.634 184.056 188.707 182.854 189.434C181.439 190.222 180.277 191.547 179.501 193.26C178.678 195.361 176.567 195.069 175.945 197.021C175.323 198.973 174.237 197.629 173.39 197.975C173.38 197.098 173.237 196.21 172.97 195.36C172.685 194.79 171.94 194.568 171.5 194.442C171.082 193.242 171.06 191.701 169.875 193.155C170.391 193.645 170.935 194.076 171.5 194.442C171.646 195.67 171.842 196.894 172.089 198.111C170.907 197.979 170.872 199.569 170.251 200.32C169.63 201.071 169.588 202.619 168.374 202.489C167.917 201.251 168.584 199.38 166.947 198.823C166.701 201.507 166.701 201.507 168.374 202.489C168.736 203.738 168.271 204.258 167.55 204.591L166.279 205.111L164.273 208.881L159.769 209.353C159.219 210.641 158.597 211.866 157.907 213.022C157.214 213.668 156.474 214.233 155.696 214.712C152.192 217.996 148.332 220.673 145.125 224.397C143.976 225.677 142.126 224.198 141.371 226.121C140.615 228.045 138.389 227.635 137.898 230.002C137.407 232.369 135.648 231.653 134.818 233.112C133.988 234.572 132.042 234.905 131.384 237.032C130.726 239.159 128.422 238.673 127.853 240.747C123.841 240.869 122.146 245.378 117.624 247.738L113.184 248.204L111.891 250.398L101.648 251.473L99.7372 249.615L96.883 249.915C96.4476 249.556 96.1147 249.007 95.9545 248.384C95.7943 247.76 95.8193 247.112 96.0243 246.574C99.7709 231.943 100.254 230.735 103.93 224.303C103.799 223.688 103.7 223.068 103.632 222.447C103.585 222.152 103.875 221.95 104.149 221.45L106.781 221.173C107.003 221.151 107.146 220.835 107.316 220.689C107.419 219.52 107.553 218.348 107.631 217.225L109.121 217.068L114.198 208.517C117.145 207.993 116.784 202.928 119.6 201.989C119.825 201.923 120.059 201.898 120.298 201.916L122.792 197.366L126.028 191.409C128.384 191.418 128.78 188.461 129.855 186.718C130.929 184.976 131.656 182.67 133.713 182.026C134.474 181.946 134.715 180.034 135.354 179.194C137.077 176.869 137.619 173.211 140.202 171.825C142.785 170.438 142.432 165.63 145.42 165.359L152.031 152.701L153.712 152.525C155.349 149.267 157.705 146.78 160.523 145.335L164.548 137.065L165.753 136.939C167.708 134.246 168.494 130.304 170.857 128.555C173.221 126.806 173.898 123.39 175.621 121.065C175.777 120.835 175.83 120.358 176.02 120.337C178.177 120.111 178.48 116.777 179.951 115.894C181.121 115.058 182.131 113.919 182.927 112.537C184.774 109.984 185.447 106.14 188.257 104.558C190.505 103.294 190.487 98.3636 193.462 98.0087L198.927 87.6581C202.384 87.2951 202.032 81.8862 204.986 80.8044C207.365 79.9547 207.051 74.5837 210.243 74.3776C211.651 71.3004 213.37 68.5135 215.36 66.079C217.328 63.6042 219.043 60.8059 220.471 57.7376C222.09 55.1665 223.432 52.281 224.929 49.5514L229.728 40.4711L231.504 40.2851C231.545 39.3367 231.295 37.7763 231.739 37.1295C233.793 34.2552 233.563 29.6055 235.809 26.9253L231.187 24.4512L227.445 24.8434L225.503 22.9894L215.355 24.0534L214.459 25.9057L205.706 26.8242L204.558 28.9174L200.531 29.3403L198.89 31.5702L193.466 32.1394L191.952 34.3571L187.893 34.7824L186.473 36.9904L182.414 37.4157L181.122 39.61L178.299 39.9059L177.007 42.1002L174.184 42.3961L172.871 44.4635C171.571 44.6001 170.018 44.1627 169.224 44.8467C167.862 46.2778 166.206 47.2027 164.4 47.5399C162.912 50.5257 159.714 50.6898 158.317 53.8382L155.399 54.1446L154.358 56.0979L151.228 56.6833C150.703 58.8396 149.217 58.8242 147.269 58.9431C146.718 60.4267 145.972 61.751 145.06 62.8627C144.186 63.6405 142.955 63.8128 142.501 65.4039L138.22 65.8534C136.338 68.7948 133.37 69.7925 131.5 72.6045C128.877 71.9367 127.761 75.8272 124.687 75.1634L123.62 79.5642L119.656 79.9797C118.988 83.0521 116.629 84.028 115.036 85.9538C114.446 86.7017 113.309 86.6491 111.993 87.0873C109.749 90.6965 106.933 93.612 103.697 95.677C101.774 97.083 100.076 98.9118 98.6655 101.094C97.6153 102.422 96.4185 103.541 95.105 104.426L90.8778 105.213L90.8281 108.52C90.2144 108.698 89.6164 108.933 89.0383 109.223C88.6598 109.477 88.528 110.262 88.1631 110.6C87.5069 111.09 86.822 111.52 86.1124 111.888L84.305 115.294C83.1423 116.488 80.7399 114.982 80.2217 117.781C77.7524 119.12 75.6413 121.251 74.0614 124.002C73.191 125.247 72.1234 126.233 70.9155 126.905C68.79 128.329 66.8591 130.161 64.9327 131.821C62.6392 133.197 60.7659 135.426 59.5174 138.264C57.3572 139.075 55.5251 140.763 54.2638 143.103C52.9349 145.473 50.4475 146.248 49.569 149.214C47.4065 148.197 47.6686 152.844 45.4993 151.785L42.2451 157.83C39.6632 157.415 38.2345 159.966 36.3559 161.322C34.3306 162.403 32.5534 164.049 31.1342 166.157C29.8392 168.738 27.4718 169.458 26.247 172.074C25.0222 174.689 22.4103 175.092 21.7809 178.202L17.3409 178.669L11.7125 189.208L8.54112 189.541L8.21288 192.921L3.26794 196.869L3.6064 198.979C1.64799 200.133 -0.0882416 201.768 -1.52022 203.805C-2.66342 206.326 -5.20944 206.336 -5.96992 209.032C-6.13562 209.607 -6.41932 210.451 -6.76817 210.488C-9.21012 210.743 -9.3167 214.7 -11.2922 215.251C-13.2678 215.801 -13.0612 218.695 -15.5309 219.984L-15.9115 220.023C-16.8956 222.09 -17.9783 224.065 -19.1542 225.939C-20.3309 227.649 -20.5387 230.372 -22.9083 230.879C-24.3671 231.031 -24.229 234.704 -26.1681 235.08C-28.1073 235.455 -27.8423 239.115 -30.0897 239.779C-31.6733 240.16 -32.9023 242.347 -34.5047 244.017L-36.9784 244.276L-38.2709 246.47L-41.0617 246.763L-42.336 248.869C-44.046 248.663 -45.6121 250.157 -47.3235 248.535C-47.2593 247.328 -45.9747 246.893 -46.6623 245.42C-45.79 245.029 -44.6327 245.208 -45.9137 243.455C-46.2015 244.08 -46.4517 244.736 -46.6623 245.42C-47.3246 245.444 -47.9809 245.513 -48.6286 245.627L-51.2522 242.943L-49.7146 239.866L-48.0755 241.238C-46.5836 239.716 -44.9904 238.359 -43.3095 237.178C-42.3306 236.647 -42.1328 235.468 -41.4415 234.752C-40.7502 234.037 -42.0778 230.788 -39.731 230.542C-38.843 230.448 -38.2144 228.539 -37.4956 227.391C-36.7769 226.244 -34.9738 226.226 -34.4154 224.281C-33.8585 222.716 -33.2159 221.215 -32.4919 219.791L-28.9716 219.421L-28.8111 216.402C-28.005 214.394 -26.9574 212.593 -25.7024 211.059L-21.8416 213.013C-20.3774 211.486 -21.4229 209.795 -21.4602 207.955C-21.2244 207.416 -21.0311 206.409 -20.528 205.928C-18.796 204.591 -17.3552 202.744 -16.3025 200.51C-14.1143 200.28 -13.5508 197.562 -12.4126 195.813C-12.0182 195.257 -11.0578 195.414 -10.6317 194.855C-9.17635 193.073 -8.71027 190.15 -6.56905 189.025C-4.42781 187.9 -4.41375 183.567 -2.00315 182.714C0.407433 181.86 -0.097332 177.711 2.55267 177.948C3.51192 176.566 4.34768 175.041 5.0471 173.397C5.64399 171.491 7.51009 172.067 8.19749 170.322C8.8849 168.578 9.35033 166.857 11.2075 167.176C11.5803 165.079 13.3921 165.317 14.2809 164.024C15.0183 162.581 15.97 161.363 17.0896 160.427C19.2815 159.169 21.2327 157.383 22.853 155.148C24.2838 152.81 26.5607 151.928 27.747 149.274C28.4509 147.464 29.6681 146.134 31.1764 145.526C32.8573 145.349 33.0106 142.889 34.5146 142.817C36.0187 142.745 35.9792 140.691 36.8337 139.787C37.3517 139.272 37.9032 138.813 38.4836 138.412C39.6189 137.651 40.184 135.747 41.7583 135.71C42.8511 133.521 44.2854 131.682 45.9838 130.293C46.9698 129.203 47.4238 127.612 49.0052 127.016C50.5866 126.422 50.4118 123.524 52.2968 122.812C53.4545 122.39 53.8345 119.734 54.9063 118.979C55.9782 118.223 57.0361 117.984 57.37 116.448L60.5414 116.115C61.5616 114.259 62.8328 112.677 64.3043 111.432C65.9428 110.187 67.5338 108.649 69.204 107.401C70.8741 106.154 70.7788 102.947 73.1662 102.954C74.2413 100.611 76.3436 100.048 77.8713 98.5156C79.3989 96.9827 81.0419 95.567 82.5628 93.992C84.3343 92.8771 85.9222 91.3797 87.268 89.5533C89.2021 89.9503 89.3553 87.49 90.3096 86.4034C91.1237 85.4865 92.008 84.6764 92.9522 83.9819C94.6515 82.7505 96.2572 81.3348 97.7547 79.7477C99.1191 78.4039 100.174 76.5347 101.645 75.0511C107.31 70.1685 112.922 64.9479 118.816 60.0839C119.968 58.7644 121.383 57.8662 122.943 57.4643C124.084 57.3447 125.001 55.6185 126.161 54.8108C127.321 54.0031 128.356 51.407 129.713 51.2218C131.528 50.8855 133.185 49.929 134.523 48.4446C135.928 47.0992 137.542 46.1306 139.288 45.5857C140.834 44.5565 142.215 43.1957 143.382 41.5545C144.874 40.4201 146.297 39.154 147.642 37.7626C148.959 36.1229 151.817 38.0536 152.233 34.6215C154.817 35.8512 155.703 32.3277 157.794 31.8944C159.83 31.4497 161.564 29.9984 162.655 27.8251C165.434 28.2625 166.707 24.1408 169.622 24.8207L170.896 22.7146L173.719 22.4186L175.011 20.2243L177.834 19.9284L178.843 17.9783L184.646 17.3695L185.277 16.274C185.395 16.0047 185.517 15.5625 185.676 15.5463C187.832 15.3199 189.229 13.3722 191.107 12.6179C192.089 12.3858 193.097 12.2799 194.12 12.3017L195.433 10.2344L199.619 9.79536L200.911 7.60105L205.193 7.15152L206.485 4.95804L213.652 4.20613L214.618 2.3894L226.574 1.13459L227.966 2.57536L229.263 0.80957L231.031 2.38212L235.408 1.92289L237.35 3.77762L240.204 3.47846L246.434 9.94331L248.525 22.9749C247.576 27.1056 246.704 30.7131 245.941 34.3959C245.71 36.4212 245.395 38.4158 244.997 40.37C244.297 42.0137 243.462 43.5385 242.502 44.9203C241.9 45.8444 241.383 46.8615 240.958 47.9554C240.722 49.0372 240.601 50.1748 240.598 51.3382L238.981 51.5072C237.686 53.4873 237.222 56.6235 234.583 56.2572L235.037 59.083C232.4 63.9478 229.558 68.7487 227.07 73.9418C225.721 76.7845 223.088 77.6617 221.899 80.7025C220.662 83.6682 219.181 86.4236 217.48 88.9275C216.523 90.4006 214.851 90.8332 214.007 92.8084C213.494 94.4489 212.58 95.7732 211.391 96.5995C210.058 97.3401 209.294 99.6071 208.325 101.21C207.394 102.622 206.56 104.144 205.831 105.76C205.144 107.504 203.239 106.889 202.719 108.873C201.904 111.832 198.742 111.821 198.094 115.019C197.447 118.217 194.77 117.812 193.76 120.363C192.588 123.011 191.254 125.516 189.771 127.857C189.11 128.509 188.366 129.021 187.564 129.375L183.532 137.002C180.644 137.692 180.245 141.636 178.368 143.805C177.299 143.575 176.814 144.569 176.188 145.493C175.505 146.143 174.738 146.643 173.911 146.975L174.249 149.083C173.441 150.884 171.473 150.876 170.783 153.006C170.292 154.403 169.623 155.66 168.801 156.731C168.563 157.056 167.562 156.647 167.406 156.877C165.875 160.597 162.702 162.131 160.888 165.494C159.176 165.675 158.905 167.804 158.086 169.133C157.268 170.463 155.742 169.593 155.24 171.49C154.738 173.387 152.858 173.928 151.806 175.41L152.056 176.97C150.913 179.515 149.363 181.674 147.497 183.324C145.657 184.717 145.385 188.648 142.789 189.35C142.408 189.39 142.272 190.348 141.952 190.767C139.708 193.661 139.256 198.683 135.727 199.997L130.583 209.542L125.91 213.378C125.622 214.995 125.229 216.965 125.044 218.829C124.178 219.263 123.014 219.041 124.302 220.836C124.578 220.189 124.826 219.519 125.044 218.829C125.995 218.729 127.137 218.609 128.596 218.456L129.98 214.623C131.708 214.141 132.798 213.898 133.822 213.448C134.044 213.424 133.984 212.444 134.054 211.879L137.416 211.527C142.348 205.692 148.944 202.984 153 195.912L155.728 195.626L156.995 193.477L160.325 193.128L162.106 188.353L165.677 190.508C167.851 190.613 169.97 190.202 171.932 189.294L169.96 187.056C170.672 185.266 172.208 186.392 173.549 185.308L174.549 183.702L177.72 183.369L177.709 180.283C175.911 178.928 174.588 179.924 173.183 179.814C173.129 179.477 173.041 178.928 173.034 178.886C175.111 176.953 177.218 175.017 179.346 173.207C179.632 173.177 180.225 173.457 180.728 173.576C180.792 175.585 179.48 176.452 178.963 178.05C180.301 179.153 181.003 178.907 182.633 176.807L185.329 176.524C185.669 175.031 187.124 174.449 186.742 172.473L189.555 169.906L193.815 173.747C196.768 172.409 199.088 169.614 200.328 165.902C197.914 163.776 195.212 162.395 192.459 161.882C192.335 161.078 192.41 160.278 192.674 159.601C192.937 158.924 193.374 158.406 193.92 158.126C195.971 157.44 196.658 155.094 197.715 153.44L200.569 153.14L201.787 151.083C203.682 152.642 205.014 155.719 208.104 154.279C207.568 157.166 207.259 158.657 206.966 160.446C206.075 160.925 204.565 159.754 204.365 161.919C206.434 162.559 206.434 162.559 206.966 160.446L209.217 160.209C210.534 158.57 211.078 155.726 213.298 155.493C213.467 155.347 213.439 154.364 213.484 153.844ZM140.696 222.718C141.332 222.265 142.885 224.504 143.004 221.833C142.112 220.897 141.32 220.981 140.822 222.705L140.696 222.718ZM200.797 158.176C201.004 158.483 201.259 158.725 201.541 158.882C201.823 159.04 202.121 159.106 202.409 159.076C202.696 159.046 202.964 158.92 203.186 158.71C203.409 158.5 203.58 158.212 203.683 157.874C203.481 157.594 203.236 157.374 202.969 157.233C202.702 157.091 202.421 157.032 202.15 157.061C201.879 157.089 201.626 157.204 201.412 157.396C201.199 157.588 201.031 157.851 200.924 158.164L200.797 158.176ZM197.798 161.193L198.191 160.423C197.853 160.206 197.502 160.042 197.145 159.933C197.145 159.933 196.888 160.345 196.764 160.573L197.798 161.193ZM164.337 196.223L164.984 196.841C165.112 196.415 165.191 195.959 165.219 195.488C165.219 195.488 164.865 195.095 164.673 194.901L164.337 196.223ZM159.006 197.768L158.614 198.539C158.961 198.764 159.323 198.927 159.692 199.026C159.692 199.026 159.948 198.613 160.073 198.386L159.006 197.768ZM-41.8365 243.542C-41.8772 243.289 -42.2937 242.904 -42.4138 242.959C-42.7316 243.137 -43.0186 243.385 -43.2637 243.692C-43.0713 243.886 -42.8132 244.288 -42.6931 244.233C-42.3821 244.053 -42.0945 243.821 -41.8365 243.542Z" fill="#416262"/>
</svg>
