<svg width="235" height="59" viewBox="0 0 235 59" fill="none" xmlns="http://www.w3.org/2000/svg">
<path d="M1.90002 -259.1L0.440002 -257.636L3.03497 -254.911L2.12799 -252.519L9.13397 -245.166L8.16803 -242.834L10.763 -240.11C9.093 -237.96 11.16 -236.767 9.67603 -234.7C11.166 -233.834 10.586 -232.003 10.716 -230.681C11.338 -229.221 12.403 -227.985 13.865 -227.028L12.823 -224.846L15.497 -222.04L14.544 -220.043L18.018 -216.397L17.052 -214.065L22.34 -208.515L21.316 -206.245L32.049 -194.979L31.102 -193.116L35.57 -188.425L34.485 -186.15L38.934 -181.48L37.829 -179.225L42.259 -174.575L41.154 -172.32L45.681 -167.568L44.709 -165.592L47.324 -162.847L46.319 -160.557L48.114 -158.673L47.349 -157.315C47.156 -155.497 49.043 -154.91 49.663 -153.632L48.735 -151.749L52.307 -148L51.179 -145.699C51.882 -144.961 53.683 -144.255 53.56 -143.2C53.486 -141.485 53.793 -139.896 54.471 -138.48C54.452 -136.895 54.224 -135.246 53.789 -133.552L57.106 -130.069L56.101 -127.779L57.702 -126.1L56.761 -123.882C57.658 -122.939 59.379 -122.249 57.489 -120.19L60.748 -116.769L59.937 -110.651L62.26 -108.214L61.274 -105.903L63.889 -103.158L62.865 -100.888L64.64 -99.0241L63.69 -97.0942L66.187 -93.9168L65.215 -91.9408C66.17 -91.2115 66.968 -90.3747 67.595 -89.4417C68.104 -88.4197 66.736 -86.7194 67.917 -85.7581C68.503 -85.1436 67.627 -83.5541 68.16 -82.6461C68.694 -81.7374 69.936 -80.7819 68.524 -78.9887L70.28 -77.1452L69.276 -74.8548L71.012 -73.0318L70.007 -70.7414L72.525 -68.0991C72.226 -67.2278 71.43 -66.112 71.806 -65.8566C73.169 -64.8447 72.591 -63.0817 72.68 -61.7337C72.769 -60.3859 73.969 -59.8929 73.394 -58.1968C72.819 -56.5006 74.717 -56.181 75.568 -55.079L74.712 -52.9799L78.206 -49.3134L77.181 -47.0435L83.426 -40.4888L89.639 -42.4L90.706 -44.2068L92.311 -44.1946C94.201 -43.6745 89.594 -39.7287 94.327 -40.685L95.169 -42.4496L101.961 -46.6796L106.384 -51.6537L105.755 -53.22L108.137 -55.389L111.518 -61.737C115.166 -63.5523 113.316 -66.1208 116.806 -68.033C116.962 -68.1324 117.1 -68.2459 117.213 -68.3668C117.326 -68.4877 117.412 -68.6134 117.464 -68.7364C118.569 -70.9913 119.679 -73.3799 120.821 -75.5268C121.963 -77.6737 125.786 -79.7936 124.842 -81.6209C126.993 -83.6131 130.165 -84.6747 130.266 -86.7291C133.142 -86.9854 136.375 -89.0972 138.968 -88.8846L144.787 -86.4704L148.648 -86.4599L147.595 -83.4538L155.557 -75.0967L154.606 -73.167L158.178 -69.4185L157.05 -67.1172C157.578 -66.3601 158.231 -65.6748 159.002 -65.0688C160.191 -64.3083 158.278 -62.6926 158.995 -61.8009C159.712 -60.9091 160.478 -60.2441 161.297 -59.3838L160.418 -57.1713L162.994 -54.4675L161.989 -52.1772L163.725 -50.3541L162.992 -48.7549C162.825 -47.1174 164.693 -46.5509 165.375 -45.2782L164.582 -43.7403C164.235 -42.1533 166.319 -41.9173 166.345 -40.0081C164.689 -37.7041 168.018 -37.068 168.489 -35.1096C165.738 -32.3521 171.613 -32.3881 168.209 -29.5499L170.98 -26.6413L169.994 -24.3304L171.712 -22.528L170.707 -20.2376L174.024 -16.7554C173.615 -15.0582 173.393 -13.4037 173.362 -11.8062C173.604 -10.2275 174.944 -9.16916 174.212 -7.08099C173.93 -6.12225 175.656 -5.56522 176.495 -4.68445L175.657 -2.49789L178.213 0.185425L177.228 2.49615L179.843 5.24094L178.818 7.51077L180.672 9.45676L179.667 11.7471L181.345 13.5087L180.419 15.8809C183.87 16.995 181.517 21.0062 183.599 22.8428C181.749 25.431 184.556 25.869 185.352 27.3316L184.453 29.5236L186.151 31.3056L185.146 33.596L186.902 35.4395L185.974 37.3228L188.609 40.088L187.503 42.3429L191.075 46.0914L189.928 48.3721L193.499 52.1206L192.546 54.1173L195.239 56.944L197.926 56.8372L199.663 58.6603L212.662 57.3209C214.415 55.1192 218.436 57.2494 219.689 53.8255C218.809 53.4596 216.839 54.4581 216.451 53.4926C213.965 54.1593 213.965 54.1593 213.628 52.4112C216.043 51.4619 215.551 53.1062 216.451 53.4926L218.97 50.4224L222.637 48.1387L222.234 45.9742C223.486 44.6398 225.163 42.8451 226.858 41.071C226.858 41.071 227.4 40.7336 228.12 40.5137L230.075 41.4504L233.372 40.3111L234.337 36.4463C233.05 35.5833 229.344 36.2923 228.919 34.1742L224.936 35.7082C224.936 35.7082 224.474 35.5716 224.624 35.3804L232.127 19.8398C232.127 19.8398 232.752 19.4506 233.044 19.2689C232.608 19.0435 232.294 18.7259 232.121 18.3355C231.947 17.945 231.917 17.4901 232.034 16.9986C232.15 16.5071 232.41 15.9896 232.798 15.4779C233.185 14.9662 233.692 14.4711 234.287 14.0233L232.511 12.1593C230.267 13.9157 230.282 15.6037 229.379 17.3736C228.476 19.1436 227.163 20.4834 228.756 21.3191L225.418 28.13L220.483 38.3511L212.13 47.6329L206.779 46.7551L205.061 44.9526L206.011 43.0229L202.44 39.2744L203.437 37.1848L200.198 33.7845L201.047 27.7072L198.705 25.2492L199.669 22.9848L196.837 23.149C195.912 20.6384 196.524 17.5142 198.568 14.3034L194.737 14.0456L195.526 12.0858L192.911 9.34094L193.872 7.14355L191.547 7.35132L192.123 -1.59113L188.884 -4.99133C189.956 -5.8873 190.733 -6.53473 191.491 -7.20261C192.241 -9.20337 189.54 -9.25098 189.588 -11.5003L190.178 -12.5532C189.904 -14.3736 187.641 -15.2161 186.733 -16.9354L187.502 -18.9157L185.361 -18.7242C184.797 -19.8741 186.771 -21.4954 186.378 -23.3718L183.372 -26.5262L184.358 -28.837L179.909 -33.5073L183.058 -39.679L178.687 -44.2673L179.516 -46.7419L177.095 -49.7707L178.023 -51.6541L173.964 -55.9147L174.345 -62.4836C174.822 -64.2422 174.353 -65.7529 173.029 -66.7224C172.288 -67.5009 171.546 -68.2792 170.804 -69.0576L171.283 -74.4794L169.046 -74.4574C168.039 -74.9169 167.47 -75.711 167.428 -76.7133C168.206 -77.3607 168.964 -78.0285 169.741 -78.6759C169.737 -79.098 169.942 -79.6497 169.708 -79.8955C166.878 -82.866 164.049 -85.8357 161.239 -88.7852L162.18 -91.0029C162.074 -92.4388 159.761 -91.5203 158.676 -91.8235L159.342 -93.7728L156.669 -93.5117L150.405 -100.087L147.794 -99.831L145.218 -102.535C141.918 -101.818 141.105 -104.413 137.217 -102.709C135.091 -101.875 132.959 -99.8617 130.413 -100.234L116.662 -91.6699C116.45 -89.3842 113.267 -87.0105 111.912 -84.5995C110.557 -82.1893 109.416 -79.5532 108.178 -77.0198C106.94 -74.4864 105.927 -71.9954 104.425 -69.4605C102.922 -66.9258 100.759 -64.1096 98.54 -60.9328C97.29 -60.1543 95.948 -59.612 95.085 -60.9353L95.923 -63.1217L92.469 -66.7473L93.455 -69.0581L91.738 -70.8606L92.742 -73.151L90.967 -75.0151L91.866 -77.207C90.401 -80.886 89.659 -84.8905 89.655 -89.1458L87.293 -91.6238C87.37 -93.2263 87.598 -94.8716 87.975 -96.5525C88.553 -98.3159 85.774 -98.4452 87.041 -100.67C88.307 -102.895 85.391 -103.168 86.396 -105.458C86.98 -106.866 83.57 -106.961 84.653 -109.17C85.736 -111.378 83.243 -111.555 82.684 -112.839C83.07 -113.692 83.192 -114.506 83.04 -115.221C82.889 -115.936 82.468 -116.531 81.81 -116.963L82.732 -119.201L80.995 -121.024L82 -123.314L79.365 -126.079L80.16 -127.684C79.82 -129.059 78.93 -130.184 77.566 -130.964L74.535 -130.871L77.473 -133.223L78.849 -136.169L76.273 -138.872L77.258 -141.183L75.541 -142.986L76.546 -145.277L73.911 -148.042L74.82 -149.945L73.243 -152.227L73.971 -154.182C72.937 -155.267 71.388 -156.196 71.842 -157.392C72.154 -158.124 72.23 -158.817 72.063 -159.417C71.896 -160.016 71.491 -160.503 70.88 -160.84C69.429 -161.667 71.128 -163.508 70.495 -164.451C69.861 -165.395 68.719 -166.315 70.131 -168.108L67.477 -170.894L68.501 -173.164L66.725 -175.028L67.695 -176.937L64.124 -180.686L65.209 -182.961L61.658 -186.689L62.743 -188.964L58.294 -193.634L59.288 -195.657L53.122 -202.13L54.088 -204.461L51.551 -207.124L52.533 -209.368L46.308 -215.902L47.039 -217.435C47.131 -217.687 47.347 -218.017 47.249 -218.12L37.492 -228.362L38.42 -230.245L33.795 -235.1L30.602 -235.037L31.15 -238.642L27.581 -238.834L25.942 -240.555L26.9 -242.685L19.796 -250.141L20.799 -252.365C19.743 -252.915 20.004 -254.383 17.777 -254.073L16.51 -251.848L9.771 -251.535L14.322 -256.654L17.615 -257.17C18.8 -258.365 17.92 -258.732 17.143 -259.129C15.105 -258.969 13.865 -257.413 12.208 -256.642L9.18597 -256.262L9.125 -253.188C6.319 -253.138 6.45402 -255.017 5.02502 -255.89L9.065 -260.43L12.016 -259.493C12.33 -260.911 11.987 -262.149 11.038 -263.029L13.559 -265.121C14.299 -266.366 13.797 -267.032 11.692 -266.733L10.742 -264.803L7.06702 -262.318L5.29999 -259.782C3.88899 -259.033 2.51402 -258.177 1.90002 -259.1ZM222.608 41.1397C222.364 40.1168 221.514 39.5037 223.828 39.0746C223.531 39.6274 223.117 40.1826 222.605 40.7176C222.776 40.8176 222.885 40.9629 222.922 41.1401C222.959 41.3173 222.922 41.5211 222.815 41.7332C222.708 41.9454 222.534 42.1593 222.309 42.3558C222.084 42.5522 221.814 42.7252 221.524 42.8591C220.429 44.6375 219.17 46.4142 217.758 48.1746C216.884 48.5431 216.002 48.8745 215.117 49.1663L216.649 45.8953L221.524 42.8591C220.878 42.25 221.252 41.5276 222.608 41.1397Z" fill="#84A17D"/>
</svg>
