<svg width="165" height="296" viewBox="0 0 165 296" fill="none" xmlns="http://www.w3.org/2000/svg">
<path d="M15.514 79.774C14.948 79.18 14.823 78.2132 13.21 78.4018C12.847 78.8566 12.322 79.2813 12.206 79.6473C11.66 82.1408 10.993 84.6456 10.344 87.1714C9.95499 89.9987 9.88101 92.7388 10.122 95.3705L7.85199 99.3298L7.76099 107.318C7.83899 107.505 7.985 107.659 8.19 107.768L9.32098 108.468C10.619 108.018 11.898 107.548 13.237 107.073C12.749 109.139 14.043 110.846 11.504 113.407L8.66998 112.593C8.32898 113.002 7.76199 113.452 7.68799 113.792C7.48699 115.323 7.13999 116.891 6.64899 118.486C6.03799 119.899 5.83302 121.25 6.04602 122.452C6.35802 123.818 6.01998 125.42 5.07098 127.074C3.81498 129.03 5.56402 130.031 4.29602 131.766C3.02802 133.502 4.97198 133.172 5.26898 133.902C6.04198 133.287 6.91999 132.741 7.85199 132.293C8.55299 132.053 9.27397 132.321 9.69397 132.484C11.039 131.875 12.403 130.797 11.969 132.503C11.176 132.555 10.414 132.548 9.69397 132.484C8.51797 133.269 7.30697 134.023 6.06897 134.742C7.02097 135.324 5.65501 136.468 5.43701 137.354C5.21901 138.241 3.895 139.359 4.867 139.961C6.273 139.347 7.43801 137.643 9.08301 138.184C6.90901 140.223 6.909 140.223 4.867 139.961C3.519 140.637 3.39302 141.271 3.61102 141.919L4.05499 143.012L2.17798 146.826L4.94897 149.734C4.21197 150.96 3.57901 152.182 3.05701 153.393C2.98201 154.246 3.01103 155.068 3.14203 155.853C2.74803 160.177 3.135 164.277 2.146 168.744C1.84 170.306 4.44103 170.318 3.29303 172.109C2.14503 173.901 4.07798 174.884 2.35498 176.838C0.63198 178.793 2.50201 179.293 1.81201 180.799C1.12301 182.306 2.20799 183.653 0.812988 185.534C-0.583012 187.415 1.472 188.387 0.0599976 190.18C2.791 192.559 0.0460161 196.716 1.17902 200.972L3.91101 203.839L2.90601 206.13L9.20898 212.746L12.185 212.524L13.941 214.368C14.563 214.363 15.279 214.165 15.937 213.816C16.596 213.467 17.145 212.993 17.47 212.496C27.617 200.01 28.332 198.878 31.358 192.229C31.988 191.869 32.6 191.488 33.192 191.087C33.483 190.906 33.455 190.597 33.699 190.086L32.079 188.386C31.942 188.242 32.117 187.938 32.125 187.737C33.074 186.852 34.004 185.946 34.932 185.108L34.014 184.145L37.904 175.196C36.278 173.14 40.963 169.766 39.793 167.492C39.692 167.317 39.548 167.165 39.364 167.041L41.579 162.398L44.501 156.335C42.826 154.996 45.133 152.678 45.897 150.832C46.661 148.985 48.164 146.939 47.273 145.307C46.805 144.816 48.307 143.326 48.589 142.367C49.404 139.738 52.221 136.841 51.606 134.384C50.992 131.927 55.447 128.729 53.571 126.83L59.967 114.1L58.933 113.014C60.624 109.774 61.133 106.669 60.405 104.035L64.791 95.8863L64.05 95.1077C65.022 92.0871 67.914 88.8498 67.772 86.2626C67.631 83.6746 70.139 80.8715 70.954 78.2427C71.046 77.9901 71.426 77.6227 71.309 77.4998C69.982 76.1069 72.683 73.5761 72.416 72.1108C72.319 70.8504 72.601 69.4681 73.247 68.0355C74.173 65.1744 77.06 62.0713 76.456 59.3469C75.973 57.1673 80.296 53.6914 78.504 51.7399L83.692 41.2962C81.565 39.0635 86.545 35.4399 85.402 32.9859C84.463 31.0249 89.382 27.4069 87.305 25.4364C89 22.4554 90.223 19.5019 90.945 16.6426C91.717 13.7675 92.952 10.8086 94.626 7.82271C95.73 5.07899 97.304 2.27106 98.633 -0.515003L103.181 -9.67906L102.088 -10.8261C102.888 -11.52 104.43 -12.4801 104.682 -13.1916C105.743 -16.3984 109.973 -19.5548 110.728 -22.7341L116.16 -21.8414L118.463 -19.4244L121.458 -19.6254L127.703 -13.0706L126.716 -11.2488L132.103 -5.59531L131.083 -3.45928L133.562 -0.857895L132.771 1.65767L136.108 5.16038L135.24 7.59409L137.738 10.216L136.811 12.5883L139.309 15.2101L138.304 17.5004L140.041 19.3234L139.036 21.6137L140.773 23.4368L139.893 25.6492C140.693 26.489 142.174 27.0679 142.137 28.0048C141.848 29.7956 142.211 31.3964 143.193 32.6672C141.633 35.6294 143.751 37.5739 141.985 40.5991L143.781 42.4835L142.809 44.4597L144.51 46.6638C142.995 48.4884 144.06 49.3269 145.333 50.5245C144.425 51.8887 143.794 53.2514 143.467 54.5588C143.405 55.6091 144.125 56.4338 143.054 57.8187L145.688 60.584C144.446 63.7402 145.672 66.1423 144.535 69.2001C146.974 70.2269 144.361 73.6167 147.115 74.9043L144.021 78.626L146.46 81.1868C144.246 83.7401 145.06 85.7791 144.503 88.0518C144.265 88.9178 145.115 89.5306 145.662 90.593C144.093 94.4277 143.534 98.1 144.016 101.409C144.146 103.503 143.748 105.767 142.837 108.117C142.418 109.655 142.285 111.132 142.44 112.508L144.741 115.481L141.884 117.848C142.162 118.325 142.38 118.833 142.535 119.368C142.58 119.764 141.987 120.396 141.949 120.843C141.985 121.564 142.093 122.26 142.273 122.925L140.572 126.367C140.35 127.877 143.366 128.185 141.284 130.461C141.86 132.818 141.488 135.533 140.2 138.381C139.726 139.759 139.619 141.067 139.885 142.233C140.143 144.454 139.906 146.854 139.816 149.129C140.235 151.413 139.61 154.06 138.01 156.781C138.829 158.59 138.648 160.83 137.493 163.207C136.36 165.641 137.441 167.613 135.468 170.211C137.887 170.729 133.637 173.865 136.097 174.356L133.112 180.491C135.3 181.673 134.079 184.295 134.223 186.326C134.709 188.249 134.526 190.429 133.685 192.731C132.344 195.296 133.389 197.159 131.967 199.709C130.545 202.259 132.04 204.037 129.764 206.596L132.497 209.463L127.259 220.134L129.21 222.182L126.487 224.76L126.529 230.38L124.446 231.677C124.821 233.614 124.619 235.762 123.85 238.021C122.453 240.457 124.245 241.919 122.425 244.26C122.04 244.761 121.501 245.521 121.716 245.746C123.219 247.324 119.834 250.182 120.75 251.701C121.665 253.219 118.988 255.148 119.607 257.47L119.841 257.716C118.73 259.741 117.768 261.756 116.961 263.753C116.298 265.635 114.063 267.679 115.296 269.392C116.193 270.335 112.883 272.853 113.926 274.227C114.969 275.6 111.581 278.037 112.589 279.792C113.376 280.967 112.332 283.216 112.005 285.312L113.527 286.91L112.522 289.2L114.24 291.003L113.299 293.22C114.688 294.052 114.489 296.003 117.118 295.835C118.128 294.945 117.6 293.903 119.374 293.255C119.1 292.48 118.125 291.944 120.563 291.438C120.221 292.044 119.823 292.651 119.374 293.255C119.822 293.65 120.226 294.074 120.584 294.525L124.786 294.127L126.39 291.073L124.031 291.105C124.308 289.176 124.368 287.306 124.211 285.51C123.984 284.575 124.875 283.628 125.012 282.727C125.15 281.826 128.929 280.287 127.485 278.772C126.939 278.198 128.165 276.488 128.66 275.266C129.155 274.044 127.896 273 129.202 271.306C130.178 269.88 131.035 268.452 131.769 267.031L129.603 264.758L132.13 262.531C133.316 260.649 134.15 258.778 134.605 256.976L130.166 256.149C130.466 254.233 132.684 253.635 134.32 252.355C134.625 251.839 135.368 251.017 135.434 250.389C135.378 248.453 135.975 246.323 137.184 244.142C135.838 242.728 137.816 240.484 138.541 238.597C138.749 237.978 137.933 237.54 138.12 236.901C138.65 234.809 140.876 232.476 140.346 230.456C139.816 228.436 143.595 225.364 142.637 223.383C141.679 221.402 145.665 218.756 143.584 217.408C144.114 215.883 144.857 214.327 145.8 212.765C147.045 211.076 145.222 210.416 146.262 208.789C147.301 207.162 148.478 205.68 146.885 204.844C148.456 203.147 146.966 202.281 147.469 200.858C148.209 199.416 148.601 198.01 148.628 196.708C148.178 194.567 148.361 192.187 149.17 189.681C150.202 187.21 149.364 185.284 150.847 182.729C151.932 181.047 152.234 179.41 151.699 178.118C150.665 177.033 152.708 175.205 151.708 174.295C150.707 173.384 152.532 171.954 152.719 170.826C152.802 170.166 152.814 169.525 152.753 168.911C152.617 167.723 153.882 166.054 152.801 165.128C153.944 162.955 154.538 160.835 154.552 158.881C154.808 157.547 155.878 156.162 155.28 154.838C154.682 153.513 157.34 151.564 156.63 149.983C156.18 149.022 158.234 146.928 158.137 145.78C158.04 144.633 157.502 143.859 158.609 142.582L156.658 140.534C157.559 138.638 158.044 136.793 158.093 135.071C158.022 133.254 158.243 131.256 158.153 129.419C158.063 127.583 160.935 125.37 159.24 124.01C160.529 121.739 159.535 120.138 159.796 118.182C160.056 116.224 160.132 114.284 160.434 112.301C160.156 110.5 160.344 108.533 160.989 106.472C159.274 105.647 161.318 103.82 161.593 102.506C161.819 101.392 161.903 100.314 161.842 99.2829C161.718 97.4403 161.821 95.5217 162.15 93.5432C162.36 91.813 163.249 89.8888 163.507 87.9985C163.771 81.3064 164.368 74.4071 164.454 67.5979C164.794 66.0062 164.579 64.5625 163.828 63.3863C163.125 62.6489 163.987 60.9048 163.873 59.6703C163.759 58.4357 165.298 56.0088 164.5 55.102C163.511 53.8259 163.176 52.2026 163.528 50.3879C163.711 48.6337 163.416 47.0261 162.658 45.6421C162.466 44.0305 162.679 42.2794 163.29 40.4512C163.226 38.7961 163.328 37.087 163.594 35.334C164.096 33.422 160.387 33.1533 163.094 30.4886C160.191 29.8812 162.647 26.8833 161.547 25.3811C160.496 23.9028 160.54 21.8854 161.669 19.7246C159.321 18.4451 162.026 14.8026 159.37 13.6175L160.311 11.3995L158.574 9.57651L159.579 7.28625L157.842 5.46318L158.834 3.50739L155.263 -0.241051L155.775 -1.37595C155.927 -1.63406 156.227 -2.01648 156.129 -2.1189C154.802 -3.51178 155.518 -5.68735 154.85 -7.29469C154.359 -8.0201 153.738 -8.67166 152.996 -9.24061L153.876 -11.4531L151.3 -14.1569L152.305 -16.4472L149.67 -19.2125L150.675 -21.5028L146.265 -26.1321L147.171 -27.9689L139.814 -35.6912L137.569 -35.4684L138.197 -37.4583L135.571 -37.357L132.878 -40.1837L129.883 -39.9827L128.126 -41.8262L118.067 -40.8162L105.191 -32.7972C102.25 -29.3336 99.711 -26.284 97.03 -23.2438C95.422 -21.6794 93.9 -20.0892 92.473 -18.4799C91.53 -16.9176 90.787 -15.3618 90.257 -13.8364C89.874 -12.8386 89.351 -11.8234 88.695 -10.8073C87.915 -9.90698 87.006 -9.03363 85.991 -8.20951L86.986 -7.16493C86.17 -5.02485 83.755 -2.54185 85.942 -1.29245L83.15 0.446312C80.759 5.39432 78.57 10.4134 75.788 15.5075C74.255 18.2895 75.35 20.4144 73.531 23.2442C71.812 26.0488 70.449 28.8439 69.463 31.5875C68.851 33.1758 69.655 34.4376 68.524 36.3169C67.452 37.7701 66.941 39.2288 67.059 40.4931C67.353 41.7782 65.911 43.8186 65.194 45.5053C64.617 47.0364 63.877 48.589 62.979 50.1488C61.939 51.7753 63.824 52.4293 62.456 54.1297C60.444 56.6878 62.69 58.4876 60.351 61.1195C58.012 63.7512 60.259 64.9952 58.742 67.3757C57.255 69.9185 56.008 72.452 55.009 74.9555C54.906 75.7949 54.985 76.5813 55.242 77.2907L51.422 84.9892C52.862 87.1277 49.694 90.1451 49.124 92.7517C50.082 93.1996 49.555 94.1803 49.19 95.191C49.103 96.0415 49.209 96.8339 49.504 97.5413L47.42 98.839C46.417 100.573 47.816 101.693 46.44 103.595C45.566 104.863 44.94 106.134 44.584 107.361C44.468 107.727 45.534 108.01 45.443 108.262C43.272 111.768 44.174 114.666 42.515 118.082C43.569 119.188 41.898 120.848 41.314 122.257C40.73 123.664 42.569 123.922 41.265 125.551C39.961 127.179 40.818 128.636 40.265 130.285L38.724 131.246C37.306 133.7 36.514 136.111 36.391 138.344C36.473 140.382 33.227 143.318 34.45 145.298C34.684 145.543 33.943 146.299 33.802 146.778C32.858 150.107 28.785 153.916 30.132 156.863L25.421 166.553L25.371 171.937C24.161 173.245 22.715 174.864 21.216 176.287C21.449 177.088 22.465 177.598 19.985 178.13C20.356 177.515 20.767 176.9 21.216 176.287C20.631 175.673 19.928 174.935 19.03 173.992L21.404 170.491C20.603 169.162 20.045 168.368 19.715 167.464C19.578 167.32 20.478 166.662 20.922 166.222L18.854 164.051C20.469 157.105 18.173 151.42 21.49 144.099L19.812 142.338L20.795 140.094L18.746 137.943L21.663 133.548L17.253 133.031C15.623 131.863 14.485 130.36 13.892 128.597L17.243 128.142C18.305 126.469 16.235 126.387 16.234 124.854L16.932 123.146L14.98 121.098L17.688 118.922C20.144 118.992 20.208 120.453 21.298 121.178C21.631 120.97 22.173 120.633 22.214 120.607C22.437 118.053 22.64 115.479 22.718 112.982C22.543 112.798 21.878 112.657 21.418 112.454C19.616 113.838 19.786 115.201 18.754 116.626C16.843 116.642 16.561 116.067 17.246 113.649L15.587 111.909C16.652 110.657 16.132 109.414 18.13 108.236L18.387 104.812L12.015 105.093C11.097 102.459 11.901 99.1559 14.271 95.8224C17.837 95.6987 20.955 96.2671 23.351 97.4783C24.141 96.981 24.788 96.3722 25.194 95.7424C25.6 95.1134 25.743 94.4973 25.602 93.9871C24.753 92.3297 26.317 90.2777 27.017 88.5038L25.261 86.6604L26.2 84.5089C23.496 84.5284 19.863 85.9424 18.937 83.1579C16.791 85.5058 15.706 86.7364 14.349 88.1691C14.56 89.0172 16.651 89.052 14.9 90.6981C12.876 89.9672 12.876 89.9672 14.349 88.1691L12.964 86.7146C13.466 84.8024 15.569 82.4804 14.203 81.0469C14.211 80.8461 15.092 80.1673 15.514 79.774ZM6.74701 170.089C6.69201 169.405 3.63698 170.1 5.88898 168.143C7.33798 167.992 7.82501 168.503 6.66901 170.007L6.74701 170.089ZM20.695 90.0909C20.282 90.1895 19.888 90.2146 19.552 90.1653C19.215 90.1152 18.946 89.9915 18.769 89.8063C18.592 89.6203 18.513 89.3786 18.539 89.1021C18.566 88.8264 18.696 88.5256 18.919 88.2273C19.307 88.1456 19.673 88.1295 19.985 88.182C20.298 88.2346 20.548 88.3534 20.715 88.5289C20.882 88.7035 20.96 88.9299 20.943 89.1878C20.926 89.4457 20.814 89.7271 20.617 90.0092L20.695 90.0909ZM20.178 93.9386L20.574 93.1697C21.002 93.2093 21.395 93.2934 21.743 93.4203C21.743 93.4203 21.563 93.8594 21.452 94.0914L20.178 93.9386ZM13.202 137.838L12.203 137.905C12.486 137.531 12.829 137.164 13.222 136.814C13.222 136.814 13.814 136.739 14.12 136.712L13.202 137.838ZM15.62 141.979L15.223 142.748C14.782 142.708 14.382 142.617 14.035 142.476C14.035 142.476 14.215 142.038 14.326 141.806L15.62 141.979ZM117.604 289.168C117.854 289.013 118.486 288.978 118.522 289.086C118.592 289.394 118.578 289.732 118.483 290.09C118.177 290.117 117.643 290.254 117.606 290.146C117.543 289.842 117.543 289.513 117.604 289.168Z" fill="#84A17D"/>
</svg>
