<svg width="429" height="93" viewBox="0 0 429 93" fill="none" xmlns="http://www.w3.org/2000/svg">
<path d="M428.695 12.7947L428.446 14.6648L424.229 15.107L422.778 17.3183L411.392 18.5125L410.036 20.7132L405.819 21.1555C405.119 23.6304 402.614 23.2932 401.856 25.6023C400.045 25.3638 398.854 26.9897 397.606 27.8492C395.889 28.5267 394.055 28.7919 392.185 28.6326L391.013 30.7711L386.668 31.2271L385.595 33.1837L379.95 33.7755L378.594 35.9763L370 36.8786L368.739 39.0688L351.297 40.8993L350.337 42.7581L343.075 43.5197L341.853 45.7496L334.622 46.508L333.432 48.7346L326.233 49.4897L325.042 51.7156L317.685 52.4877L316.644 54.4411L312.394 54.8865L311.102 57.0809L308.184 57.3873L307.538 58.7844C306.085 60.1799 304.237 59.5161 302.68 60.0659L301.689 61.9279L295.886 62.5367L294.67 64.8086C293.529 64.9282 291.638 64.3979 290.801 65.2145C289.354 66.4685 287.747 67.4177 286.029 68.0305C284.656 69.1632 283.376 70.4593 282.201 71.9057L276.81 72.4716L275.517 74.666L272.917 74.9384L271.643 77.0446C270.184 77.1982 268.363 76.7026 267.899 79.2389L262.603 79.7943L257.825 84.584L254.051 84.9801L252.727 87.1777L248.478 87.6232L247.217 89.8142L244.331 90.1166L243.315 92.0247L238.771 92.8445L237.73 94.7971C236.416 94.7663 235.121 94.9022 233.861 95.2038C232.608 95.6347 232.088 97.6196 230.412 97.6236C229.46 97.7239 228.689 99.3482 227.518 99.6853C226.347 100.022 224.632 99.9885 224.062 102.063L221.208 102.363L219.916 104.557L217.093 104.853L215.801 107.048L211.71 107.476C211.159 108.264 210.746 109.507 210.256 109.473C208.408 109.409 207.275 110.987 206.033 111.889C204.791 112.79 203.511 112.453 202.434 113.981C201.358 115.509 199.736 114.651 198.171 114.944L196.94 116.916L191.263 117.512L190.002 119.703L179.854 120.768L177.132 115.864L177.958 113.977L176.812 113.068C175.021 112.355 174.827 117.779 172.317 114.397L173.265 112.668L172.162 105.794L173.384 99.7476L175.199 98.9997L175.412 96.1044L178.573 89.6824C177.581 86.3134 181.135 85.555 180.34 82.2069C180.317 82.0485 180.318 81.8884 180.344 81.7388C180.37 81.5884 180.42 81.451 180.49 81.3338C181.681 79.1079 182.985 76.7843 184.055 74.6134C185.126 72.4426 184.276 68.7582 186.542 68.0054C186.763 65.3665 185.449 62.8027 187.173 61.2924C185.365 59.4668 184.925 56.1244 182.905 54.7928L176.68 53.1733L173.94 50.9734L172.056 53.7013L159.117 55.0588L158.101 56.9669L152.298 57.5757L151.082 59.8476C150.047 60.0804 148.986 60.192 147.911 60.1799C146.405 60.0376 146.344 62.2739 145.058 62.4946C143.771 62.7154 142.647 62.7477 141.316 62.8876L140.003 64.9549L135.817 65.394L134.524 67.5883L131.702 67.8842L130.822 69.4349C129.507 70.6873 127.691 70.0203 126.096 70.5304L125.311 72.0714C124.169 73.3917 122.489 72.3674 120.801 73.7022C119.956 76.2781 117.047 74.8252 115.001 75.9402C114.534 79.4628 110.411 76.0784 110.336 80.032L105.833 80.5042L104.509 82.7017L101.718 82.9944L100.426 85.1887L95.034 85.7539C93.839 87.1882 92.549 88.485 91.175 89.6331C89.622 90.6106 87.749 90.5928 86.441 92.488C85.802 93.3272 84.094 92.7346 82.731 92.8777L81.411 94.903L77.256 95.3388L75.932 97.5355L71.683 97.9818L70.422 100.173L67.409 100.489L66.117 102.682L63.389 102.969L61.97 105.176C58.555 103.991 56.711 108.172 53.633 108.281C52.677 111.169 50.309 109.873 48.467 110.452L47.186 112.516L44.427 112.806L43.134 115L40.28 115.299L39.289 117.161L35.008 117.611L33.817 119.837L28.014 120.446L26.83 122.714L21.026 123.323L19.953 125.28L15.577 125.739L13.771 124.127L10.948 124.423L2.928 116.045C3.614 113.486 -1.09301 112.693 1.01598 109.556C1.95798 109.8 2.47798 111.633 3.59698 111.172C4.77098 113.065 4.771 113.065 6.539 112.021C5.661 109.969 4.57098 111.413 3.59698 111.172L4.501 107.56L3.90499 103.849L6.083 102.549C6.365 100.89 6.74901 98.6625 7.10101 96.4383C7.10101 96.4383 7.01301 95.8902 6.69601 95.3226L4.49499 94.8674L3.16 92.1775L5.858 88.8925C7.523 89.0178 9.52299 91.6382 11.676 90.3834L13.151 93.7452C13.151 93.7452 13.597 93.9125 13.658 93.6918L21.944 78.4134C21.944 78.4134 21.843 77.7812 21.795 77.4861C22.3 77.575 22.8 77.5305 23.264 77.3535C23.729 77.1764 24.147 76.8716 24.495 76.4576C24.842 76.0437 25.111 75.5286 25.285 74.9457C25.458 74.362 25.533 73.7224 25.504 73.0659L28.39 72.7627C28.44 75.2877 26.954 76.473 26.044 78.2412C25.135 80.0086 24.891 81.7065 23.034 81.3871L19.438 88.1115L13.988 98.1596L11.777 109.499L16.329 111.937L19.119 111.645L20.135 109.737L25.939 109.128L27.061 107.081L32.326 106.528L37.04 101.745L40.846 101.346L42.145 99.1937L44.004 100.929C46.853 99.6821 49.154 97.1239 50.516 93.6845L53.45 95.6921L54.606 93.8552L58.856 93.4096L60.099 91.3067L61.561 92.7831L68.974 86.1298L74.239 85.5776C74.264 84.3309 74.281 83.4294 74.329 82.5231C75.549 80.6805 77.5 82.1908 79.433 80.5729L79.937 79.4903C81.722 78.36 84.06 79.0578 86.205 78.3609L87.393 76.5215L88.74 77.8806C90.145 77.3906 90.167 75.1155 92.086 74.0135L96.97 73.5009L98.294 71.3034L105.524 70.545L108.695 64.3801L115.799 63.6346L117.377 61.4112L121.737 60.6529L122.728 58.7908L129.325 58.0988L134.8 53.2364C136.002 51.7204 137.654 50.92 139.438 50.9911C140.643 50.865 141.849 50.7381 143.054 50.612L147.457 46.5047L149.019 47.7991C150.133 48.0498 151.231 47.8137 152.137 47.1289C152.153 46.2266 152.201 45.3211 152.218 44.4188C152.589 44.122 152.927 43.6151 153.308 43.5755C157.906 43.0928 162.504 42.6101 167.071 42.1315L168.346 40.0245C169.676 39.0705 170.508 41.0416 171.541 41.4475L172.774 39.689L174.436 41.4014L184.616 40.3334L186.239 42.007L190.425 41.568C192.131 43.962 194.975 42.5915 196.234 46.0188C197.008 47.8242 196.755 50.4664 198.881 51.659L201.115 65.5759C199.265 67.3142 199.44 70.8118 198.29 73.2915C197.14 75.7704 195.641 78.2865 194.301 80.7856C192.961 83.2847 191.498 85.6253 190.344 88.2764C189.189 90.9275 188.256 94.1559 187.046 97.6705C187.25 98.9358 187.724 100.087 189.492 99.6441L190.811 97.6188L196.424 97.0302L197.749 94.8326L200.539 94.54L201.832 92.3457L204.718 92.0433L205.999 89.9792C210.253 88.215 214.279 85.8072 218.004 82.8012L221.841 82.3986C223.188 81.2222 224.466 79.9277 225.669 78.5234C226.803 76.9468 228.881 78.4441 229.931 76.1463C230.981 73.8494 233.282 75.3233 234.574 73.129C235.393 71.7998 237.888 73.682 239.054 71.5014C240.219 69.3209 242.137 70.6202 243.655 70.0324C244.128 69.2085 244.754 68.5633 245.486 68.1445C246.218 67.7257 247.036 67.5454 247.878 67.6166L249.184 65.5071L252.007 65.2104L253.3 63.0169L257.581 62.5674L258.422 60.9787C259.866 60.2001 261.479 59.9139 263.125 60.1419L265.187 61.9408L265.167 58.5984L266.77 55.7282L270.956 55.2892L272.28 53.0917L275.071 52.799L276.364 50.6047L280.645 50.156L281.668 48.2907L284.778 47.5784L285.973 45.7803C287.654 45.604 289.561 45.8329 290.286 44.7268C290.705 44.0315 291.258 43.4979 291.9 43.1696C292.543 42.8414 293.256 42.7282 293.982 42.839C295.73 43.0839 296.139 40.8112 297.413 40.5056C298.686 40.2008 300.299 40.2032 300.868 38.1277L305.181 37.675L306.442 35.4847L309.328 35.1815L310.312 33.2775L316.116 32.6687L317.338 30.4388L323.11 29.8332L324.332 27.6042L331.563 26.845L332.629 24.8463L342.65 23.7953L344.006 21.5945L348.129 21.162L349.396 19.0138L359.513 17.9522L360.336 16.4508C360.493 16.2196 360.629 15.8622 360.787 15.846L376.644 14.1821L377.635 12.3201L385.151 11.531L387.354 13.4011L390.119 10.5381L392.811 12.443L395.475 12.1632L396.661 10.1088L408.205 8.89767L409.44 6.75268C410.668 6.96694 411.767 5.78005 413.071 7.27256L412.021 9.56954L416.512 13.6444L417.771 7.42213L415.895 5.17529C416.102 3.65205 417.044 3.89703 417.941 4.05954C419.242 5.3386 418.759 7.14724 419.256 8.63894L421.06 10.6368L418.416 12.844C420.356 14.4845 421.904 13.0785 423.677 13.2782L424.79 7.75848L421.885 6.73329C422.904 5.55125 424.228 4.8721 425.669 4.79287L425.716 1.87171C426.281 0.569203 427.219 0.384871 428.445 1.79976L427.429 3.70784L427.855 7.56524L426.886 10.3684C427.23 11.7048 427.453 13.0963 428.695 12.7947ZM10.047 98.9164C11.114 98.3327 12.251 98.3852 10.99 96.7593C10.717 97.3196 10.524 97.9486 10.418 98.6205C10.209 98.593 10.005 98.6334 9.824 98.7377C9.643 98.842 9.491 99.007 9.38101 99.218C9.27101 99.429 9.207 99.6796 9.195 99.9481C9.182 100.216 9.22098 100.492 9.30898 100.753C8.52798 102.636 7.865 104.612 7.324 106.664C7.619 107.424 7.95299 108.163 8.32299 108.875L10.101 105.687L9.30898 100.753C10.299 100.691 10.667 99.9667 10.047 98.9164Z" fill="#416262"/>
</svg>
